<svg xmlns="http://www.w3.org/2000/svg" version="1.1" xmlns:xlink="http://www.w3.org/1999/xlink" xmlns:svgjs="http://svgjs.dev/svgjs" width="1440" height="560" preserveAspectRatio="none" viewBox="0 0 1440 560"><g mask="url(&quot;#SvgjsMask1015&quot;)" fill="none"><path d="M1316.06 77.28a5.6 5.6 0 1 0 9.85-5.32 5.6 5.6 0 1 0-9.85 5.32zM1330.14 69.67a5.6 5.6 0 1 0 9.85-5.32 5.6 5.6 0 1 0-9.85 5.32zM1344.21 62.07a5.6 5.6 0 1 0 9.86-5.32 5.6 5.6 0 1 0-9.86 5.32zM1358.29 54.46a5.6 5.6 0 1 0 9.85-5.32 5.6 5.6 0 1 0-9.85 5.32z" stroke="#037b0b" stroke-width="1.7" stroke-dasharray="3, 2"></path><path d="M1015.17 211.16a5.6 5.6 0 1 0-6.91 8.81 5.6 5.6 0 1 0 6.91-8.81zM1005.29 223.74a5.6 5.6 0 1 0-6.91 8.82 5.6 5.6 0 1 0 6.91-8.82zM995.42 236.33a5.6 5.6 0 1 0-6.91 8.82 5.6 5.6 0 1 0 6.91-8.82zM985.54 248.92a5.6 5.6 0 1 0-6.91 8.82 5.6 5.6 0 1 0 6.91-8.82z" fill="#d3b714"></path><rect width="268.84" height="268.84" clip-path="url(&quot;#SvgjsClipPath1016&quot;)" x="959.68" y="118.51" fill="url(&quot;#SvgjsPattern1017&quot;)" transform="rotate(14.73, 1094.1, 252.93)"></rect><circle r="46.666666666666664" cx="1244.81" cy="98.24" fill="#d3b714"></circle><rect width="276" height="276" clip-path="url(&quot;#SvgjsClipPath1018&quot;)" x="42.1" y="255.71" fill="url(&quot;#SvgjsPattern1019&quot;)" transform="rotate(328.51, 180.1, 393.71)"></rect><rect width="60" height="60" clip-path="url(&quot;#SvgjsClipPath1020&quot;)" x="811.08" y="502.77" fill="url(&quot;#SvgjsPattern1021&quot;)" transform="rotate(277.28, 841.08, 532.77)"></rect><rect width="108" height="108" clip-path="url(&quot;#SvgjsClipPath1022&quot;)" x="820.73" y="230.76" fill="url(&quot;#SvgjsPattern1023&quot;)" transform="rotate(263.48, 874.73, 284.76)"></rect><path d="M1091.73 218.52a5.6 5.6 0 1 0 9.69-5.62 5.6 5.6 0 1 0-9.69 5.62zM1105.57 210.49a5.6 5.6 0 1 0 9.69-5.61 5.6 5.6 0 1 0-9.69 5.61zM1119.42 202.47a5.6 5.6 0 1 0 9.69-5.62 5.6 5.6 0 1 0-9.69 5.62zM1133.26 194.45a5.6 5.6 0 1 0 9.69-5.62 5.6 5.6 0 1 0-9.69 5.62zM1072.07 248.41a5.6 5.6 0 1 0 9.69-5.62 5.6 5.6 0 1 0-9.69 5.62zM1085.91 240.39a5.6 5.6 0 1 0 9.69-5.62 5.6 5.6 0 1 0-9.69 5.62zM1099.76 232.36a5.6 5.6 0 1 0 9.69-5.62 5.6 5.6 0 1 0-9.69 5.62zM1113.6 224.34a5.6 5.6 0 1 0 9.69-5.62 5.6 5.6 0 1 0-9.69 5.62zM1052.41 278.3a5.6 5.6 0 1 0 9.69-5.62 5.6 5.6 0 1 0-9.69 5.62zM1066.25 270.28a5.6 5.6 0 1 0 9.69-5.62 5.6 5.6 0 1 0-9.69 5.62zM1080.1 262.25a5.6 5.6 0 1 0 9.69-5.61 5.6 5.6 0 1 0-9.69 5.61zM1093.94 254.23a5.6 5.6 0 1 0 9.69-5.62 5.6 5.6 0 1 0-9.69 5.62z" stroke="#e73635" stroke-width="2.06"></path><path d="M607.57 43.86L597.05 36.56 601.86 24.69 591.34 17.39 596.15 5.52 585.63-1.78 590.45-13.65M615.23 41.58L604.71 34.27 609.53 22.41 599.01 15.11 603.82 3.24 593.3-4.06 598.11-15.93M622.9 39.29L612.38 31.99 617.19 20.12 606.67 12.82 611.49 0.96 600.97-6.35 605.78-18.21" stroke="#e73635" stroke-width="1.98" stroke-dasharray="3, 2"></path><rect width="157.56" height="157.56" clip-path="url(&quot;#SvgjsClipPath1024&quot;)" x="1092.22" y="419.78" fill="url(&quot;#SvgjsPattern1025&quot;)" transform="rotate(86.75, 1171, 498.56)"></rect><rect width="250.24" height="250.24" clip-path="url(&quot;#SvgjsClipPath1026&quot;)" x="1067.2" y="239.69" fill="url(&quot;#SvgjsPattern1027&quot;)" transform="rotate(199.16, 1192.32, 364.81)"></rect><rect width="336" height="336" clip-path="url(&quot;#SvgjsClipPath1028&quot;)" x="801.51" y="24.63" fill="url(&quot;#SvgjsPattern1029&quot;)" transform="rotate(113.85, 969.51, 192.63)"></rect></g><defs><mask id="SvgjsMask1015"><rect width="1440" height="560" fill="#ffffff"></rect></mask><pattern x="0" y="0" width="12.22" height="12.22" patternUnits="userSpaceOnUse" id="SvgjsPattern1017"><path d="M6.11 1L6.11 11.22M1 6.11L11.22 6.11" stroke="#e73635" fill="none" stroke-width="1.16"></path></pattern><clipPath id="SvgjsClipPath1016"><circle r="67.21" cx="1094.1" cy="252.93"></circle></clipPath><pattern x="0" y="0" width="6" height="6" patternUnits="userSpaceOnUse" id="SvgjsPattern1019"><path d="M0 6L3 0L6 6" stroke="#d3b714" fill="none"></path></pattern><clipPath id="SvgjsClipPath1018"><circle r="69" cx="180.1" cy="393.71"></circle></clipPath><pattern x="0" y="0" width="6" height="6" patternUnits="userSpaceOnUse" id="SvgjsPattern1021"><path d="M0 6L3 0L6 6" stroke="#037b0b" fill="none"></path></pattern><clipPath id="SvgjsClipPath1020"><circle r="15" cx="841.08" cy="532.77"></circle></clipPath><pattern x="0" y="0" width="6" height="6" patternUnits="userSpaceOnUse" id="SvgjsPattern1023"><path d="M3 1L3 5M1 3L5 3" stroke="#037b0b" fill="none" stroke-width="1"></path></pattern><clipPath id="SvgjsClipPath1022"><circle r="27" cx="874.73" cy="284.76"></circle></clipPath><pattern x="0" y="0" width="157.56" height="6.06" patternUnits="userSpaceOnUse" id="SvgjsPattern1025"><rect width="157.56" height="3.03" x="0" y="0" fill="#037b0b"></rect><rect width="157.56" height="3.03" x="0" y="3.03" fill="rgba(0, 0, 0, 0)"></rect></pattern><clipPath id="SvgjsClipPath1024"><circle r="39.39" cx="1171" cy="498.56"></circle></clipPath><pattern x="0" y="0" width="250.24" height="7.82" patternUnits="userSpaceOnUse" id="SvgjsPattern1027"><rect width="250.24" height="3.91" x="0" y="0" fill="#e73635"></rect><rect width="250.24" height="3.91" x="0" y="3.91" fill="rgba(0, 0, 0, 0)"></rect></pattern><clipPath id="SvgjsClipPath1026"><circle r="62.56" cx="1192.32" cy="364.81"></circle></clipPath><pattern x="0" y="0" width="336" height="6" patternUnits="userSpaceOnUse" id="SvgjsPattern1029"><rect width="336" height="3" x="0" y="0" fill="#d3b714"></rect><rect width="336" height="3" x="0" y="3" fill="rgba(0, 0, 0, 0)"></rect></pattern><clipPath id="SvgjsClipPath1028"><circle r="84" cx="969.51" cy="192.63"></circle></clipPath></defs></svg>