<svg xmlns="http://www.w3.org/2000/svg" version="1.1" xmlns:xlink="http://www.w3.org/1999/xlink" xmlns:svgjs="http://svgjs.dev/svgjs" width="1440" height="560" preserveAspectRatio="none" viewBox="0 0 1440 560"><g mask="url(&quot;#SvgjsMask1007&quot;)" fill="none"><path d="M1400.32 276.62L1413.9 276.62L1413.9 301.51L1400.32 301.51z" fill="#e73635"></path><path d="M487.33 378.88L541.43 378.88L541.43 432.98L487.33 432.98z" stroke="#e73635"></path><path d="M1409.71 555.98 a2.17 2.17 0 1 0 4.34 0 a2.17 2.17 0 1 0 -4.34 0z" fill="#037b0b"></path><path d="M309.63 508.69a51.67 51.67 0 1 0 102.2-15.28z" fill="#d3b714"></path><path d="M928.46 548.3 a34.2 34.2 0 1 0 68.4 0 a34.2 34.2 0 1 0 -68.4 0z" stroke="#037b0b"></path><path d="M1082.97 123.91 a37.91 37.91 0 1 0 75.82 0 a37.91 37.91 0 1 0 -75.82 0z" stroke="rgba(90, 66, 67, 1)"></path><path d="M316.63 45.96L368.68 45.96L368.68 98.01L316.63 98.01z" stroke="rgba(90, 66, 67, 1)"></path><path d="M410.39 231.73a46.29 46.29 0 1 0-30.26 87.5z" fill="#d3b714"></path><path d="M901.63 128.71 a45.02 45.02 0 1 0 90.04 0 a45.02 45.02 0 1 0 -90.04 0z" fill="#d3b714"></path><path d="M1170.74 284.96 a30.09 30.09 0 1 0 60.18 0 a30.09 30.09 0 1 0 -60.18 0z" stroke="#e73635"></path><path d="M222.19 178.3L250.45 178.3L250.45 210.8L222.19 210.8z" fill="#e73635"></path><path d="M1329.23 505.72L1344.97 505.72L1344.97 521.46L1329.23 521.46z" stroke="#e73635"></path><path d="M806.78 459.82 a2.54 2.54 0 1 0 5.08 0 a2.54 2.54 0 1 0 -5.08 0z" stroke="#037b0b"></path><path d="M685.2 10.8L710.58 10.8L710.58 36.18L685.2 36.18z" stroke="#d3b714"></path><path d="M216.79 21L227.14 21L227.14 31.35L216.79 31.35z" stroke="#e73635"></path><path d="M880.24 295.36 a2.48 2.48 0 1 0 4.96 0 a2.48 2.48 0 1 0 -4.96 0z" fill="rgba(90, 66, 67, 1)"></path><path d="M1220.42 168.37a32.4 32.4 0 1 0 12.86 63.51z" fill="rgba(90, 66, 67, 1)"></path><path d="M876.95 261.97L904.5 261.97L904.5 289.52L876.95 289.52z" stroke="rgba(90, 66, 67, 1)"></path><path d="M1173.42 180.55 a36.51 36.51 0 1 0 73.02 0 a36.51 36.51 0 1 0 -73.02 0z" fill="#037b0b"></path><path d="M1193.95 435.33a47.38 47.38 0 1 0 75.33-57.49z" stroke="#e73635"></path><path d="M450.45 335.41 a1.08 1.08 0 1 0 2.16 0 a1.08 1.08 0 1 0 -2.16 0z" fill="rgba(90, 66, 67, 1)"></path><path d="M904.14 511.46a4.11 4.11 0 1 0-7.81 2.58z" stroke="rgba(90, 66, 67, 1)"></path><path d="M280.11 81.57L318.41 81.57L318.41 119.87L280.11 119.87z" fill="rgba(90, 66, 67, 1)"></path><path d="M955.35 200.34L974.53 200.34L974.53 219.52L955.35 219.52z" stroke="rgba(90, 66, 67, 1)"></path><path d="M1167.28 36.4L1205.06 36.4L1205.06 74.18L1167.28 74.18z" fill="#e73635"></path><path d="M623.69 273.01L639.9 273.01L639.9 289.22L623.69 289.22z" fill="#e73635"></path><path d="M700.46 72L753.13 72L753.13 110.32L700.46 110.32z" fill="#037b0b"></path><path d="M329.03 3.52 a39.09 39.09 0 1 0 78.18 0 a39.09 39.09 0 1 0 -78.18 0z" stroke="rgba(90, 66, 67, 1)"></path><path d="M35.49 314.21a36.79 36.79 0 1 0-4.91 73.41z" fill="rgba(90, 66, 67, 1)"></path><path d="M321.91 115.66 a32.87 32.87 0 1 0 65.74 0 a32.87 32.87 0 1 0 -65.74 0z" stroke="#e73635"></path><path d="M558.61 130.46L589.55 130.46L589.55 161.4L558.61 161.4z" stroke="rgba(90, 66, 67, 1)"></path><path d="M635.09 71.07a12.05 12.05 0 1 0 8.91 22.4z" fill="rgba(90, 66, 67, 1)"></path><path d="M1433.44 163.91L1435.21 163.91L1435.21 187.89L1433.44 187.89z" stroke="#d3b714"></path></g><defs><mask id="SvgjsMask1007"><rect width="1440" height="560" fill="#ffffff"></rect></mask></defs></svg>