<svg xmlns="http://www.w3.org/2000/svg" version="1.1" xmlns:xlink="http://www.w3.org/1999/xlink" xmlns:svgjs="http://svgjs.dev/svgjs" width="1440" height="560" preserveAspectRatio="none" viewBox="0 0 1440 560"><g clip-path="url(&quot;#SvgjsClipPath1001&quot;)" fill="none"><circle r="93.335" cx="-90.94" cy="5.41" stroke="#365aa3" stroke-opacity="0.25" stroke-width="2"></circle><circle r="93.335" cx="292.07" cy="376.45" stroke="#365aa3" stroke-opacity="0.25" stroke-width="2"></circle><circle r="93.335" cx="830.12" cy="767.55" stroke="#365aa3" stroke-opacity="0.25" stroke-width="2"></circle><circle r="119.605" cx="121.24" cy="411.24" stroke="#365aa3" stroke-opacity="0.25" stroke-width="2"></circle><circle r="80.545" cx="1424.08" cy="118.23" stroke="#365aa3" stroke-opacity="0.25" stroke-width="2"></circle><circle r="184.405" cx="617.16" cy="548.27" stroke="#365aa3" stroke-opacity="0.25" stroke-width="2"></circle><circle r="177.725" cx="79.4" cy="106.78" stroke="#365aa3" stroke-opacity="0.25" stroke-width="2"></circle><circle r="125.255" cx="880.33" cy="264.8" stroke="#365aa3" stroke-opacity="0.25" stroke-width="2"></circle><circle r="110.37" cx="1249.38" cy="437.09" stroke="#365aa3" stroke-opacity="0.25" stroke-width="2"></circle><circle r="98.95" cx="411.72" cy="166.62" stroke="#365aa3" stroke-opacity="0.25" stroke-width="2"></circle><circle r="95.28" cx="1220.21" cy="25.19" stroke="#365aa3" stroke-opacity="0.25" stroke-width="2"></circle><circle r="66.615" cx="885.99" cy="377.56" stroke="#365aa3" stroke-opacity="0.25" stroke-width="2"></circle><circle r="176.905" cx="448.37" cy="84.32" stroke="#365aa3" stroke-opacity="0.25" stroke-width="2"></circle><circle r="89.97" cx="943.16" cy="387.69" stroke="#365aa3" stroke-opacity="0.25" stroke-width="2"></circle><circle r="128.815" cx="326.49" cy="454.95" stroke="#365aa3" stroke-opacity="0.25" stroke-width="2"></circle><circle r="172.06" cx="367.9" cy="503.34" stroke="#365aa3" stroke-opacity="0.25" stroke-width="2"></circle><circle r="160.88" cx="1314.7" cy="316.83" stroke="#365aa3" stroke-opacity="0.25" stroke-width="2"></circle><circle r="94.87" cx="1382.8" cy="174.09" stroke="#365aa3" stroke-opacity="0.25" stroke-width="2"></circle><circle r="98.175" cx="992.69" cy="423.89" stroke="#365aa3" stroke-opacity="0.25" stroke-width="2"></circle><circle r="59.58" cx="109.8" cy="323.61" stroke="#365aa3" stroke-opacity="0.25" stroke-width="2"></circle><circle r="163.79" cx="1420.22" cy="157.68" stroke="#365aa3" stroke-opacity="0.25" stroke-width="2"></circle><circle r="75.75" cx="901.42" cy="241.66" stroke="#365aa3" stroke-opacity="0.25" stroke-width="2"></circle><circle r="51.555" cx="122.92" cy="233.47" stroke="#365aa3" stroke-opacity="0.25" stroke-width="2"></circle><circle r="67.485" cx="4.42" cy="75.58" stroke="#365aa3" stroke-opacity="0.25" stroke-width="2"></circle><circle r="70.24" cx="902.65" cy="160.62" stroke="#365aa3" stroke-opacity="0.25" stroke-width="2"></circle><circle r="87.3" cx="130.37" cy="55.27" stroke="#365aa3" stroke-opacity="0.25" stroke-width="2"></circle><circle r="151.515" cx="842.35" cy="120.9" stroke="#365aa3" stroke-opacity="0.25" stroke-width="2"></circle><circle r="61.395" cx="1364.06" cy="531.05" stroke="#365aa3" stroke-opacity="0.25" stroke-width="2"></circle><circle r="175.53" cx="718.92" cy="43.94" stroke="#365aa3" stroke-opacity="0.25" stroke-width="2"></circle><circle r="154.315" cx="429.16" cy="240.41" stroke="#365aa3" stroke-opacity="0.25" stroke-width="2"></circle><circle r="53.46" cx="1039.69" cy="461" stroke="#365aa3" stroke-opacity="0.25" stroke-width="2"></circle><circle r="121.75" cx="121.53" cy="18.25" stroke="#365aa3" stroke-opacity="0.25" stroke-width="2"></circle><circle r="131.245" cx="247.34" cy="66.89" stroke="#365aa3" stroke-opacity="0.25" stroke-width="2"></circle><circle r="161.075" cx="1014.53" cy="170.29" stroke="#365aa3" stroke-opacity="0.25" stroke-width="2"></circle><circle r="158.105" cx="420.52" cy="239.35" stroke="#365aa3" stroke-opacity="0.25" stroke-width="2"></circle><circle r="77.095" cx="1170.36" cy="292.57" stroke="#365aa3" stroke-opacity="0.25" stroke-width="2"></circle><circle r="144.945" cx="825.56" cy="14.5" stroke="#365aa3" stroke-opacity="0.25" stroke-width="2"></circle><circle r="150.225" cx="1228.33" cy="160.73" stroke="#365aa3" stroke-opacity="0.25" stroke-width="2"></circle><circle r="152.575" cx="1217.68" cy="65.62" stroke="#365aa3" stroke-opacity="0.25" stroke-width="2"></circle><circle r="160.76" cx="541.73" cy="198.65" stroke="#365aa3" stroke-opacity="0.25" stroke-width="2"></circle></g><defs><clipPath id="SvgjsClipPath1001"><rect width="1440" height="560" x="0" y="0"></rect></clipPath></defs></svg>